<svg width="56" height="56" viewBox="0 0 56 56" fill="none" xmlns="http://www.w3.org/2000/svg">
<g filter="url(#filter0_d_581_35091)">
<rect x="4" y="2" width="48" height="48" rx="24" fill="white"/>
<path d="M35.2806 25.0302C35.211 25.1 35.1282 25.1553 35.0372 25.193C34.9461 25.2308 34.8486 25.2502 34.75 25.2502C34.6514 25.2502 34.5538 25.2308 34.4628 25.193C34.3717 25.1553 34.289 25.1 34.2194 25.0302L28.75 19.5599V34.2496C28.75 34.4485 28.671 34.6393 28.5303 34.7799C28.3897 34.9206 28.1989 34.9996 28 34.9996C27.8011 34.9996 27.6103 34.9206 27.4697 34.7799C27.329 34.6393 27.25 34.4485 27.25 34.2496V19.5599L21.7806 25.0302C21.6399 25.171 21.449 25.25 21.25 25.25C21.051 25.25 20.8601 25.171 20.7194 25.0302C20.5786 24.8895 20.4996 24.6986 20.4996 24.4996C20.4996 24.3006 20.5786 24.1097 20.7194 23.969L27.4694 17.219C27.539 17.1493 27.6217 17.0939 27.7128 17.0562C27.8038 17.0185 27.9014 16.999 28 16.999C28.0986 16.999 28.1961 17.0185 28.2872 17.0562C28.3782 17.0939 28.461 17.1493 28.5306 17.219L35.2806 23.969C35.3503 24.0386 35.4057 24.1214 35.4434 24.2124C35.4812 24.3035 35.5006 24.4011 35.5006 24.4996C35.5006 24.5982 35.4812 24.6958 35.4434 24.7868C35.4057 24.8779 35.3503 24.9606 35.2806 25.0302Z" fill="#1652C9"/>
</g>
<defs>
<filter id="filter0_d_581_35091" x="0" y="0" width="56" height="56" filterUnits="userSpaceOnUse" color-interpolation-filters="sRGB">
<feFlood flood-opacity="0" result="BackgroundImageFix"/>
<feColorMatrix in="SourceAlpha" type="matrix" values="0 0 0 0 0 0 0 0 0 0 0 0 0 0 0 0 0 0 127 0" result="hardAlpha"/>
<feOffset dy="2"/>
<feGaussianBlur stdDeviation="2"/>
<feColorMatrix type="matrix" values="0 0 0 0 0 0 0 0 0 0 0 0 0 0 0 0 0 0 0.25 0"/>
<feBlend mode="normal" in2="BackgroundImageFix" result="effect1_dropShadow_581_35091"/>
<feBlend mode="normal" in="SourceGraphic" in2="effect1_dropShadow_581_35091" result="shape"/>
</filter>
</defs>
</svg>
