<svg width="218" height="255" viewBox="0 0 218 255" fill="none" xmlns="http://www.w3.org/2000/svg">
<g clip-path="url(#clip0_1_40)">
<path d="M85.6524 65.6465V87.3129H0V65.6465L52.9293 25.2829H0V3.61649H85.6524V25.2829L32.723 65.6465H85.6524Z" fill="#FFFFFF"/>
<path d="M184.557 45.4687C184.557 46.8765 184.46 48.349 184.323 49.8214H118.594C120.332 58.5511 127.068 69.5219 140.951 69.5704C153.856 69.5704 164.076 58.5835 164.149 58.4783L181.307 68.9555C181.307 68.9555 168.167 88.8825 139.6 88.8825C105.956 88.8825 94.6437 63.6077 94.6437 45.4687C94.6437 27.3298 105.956 2.05499 139.6 2.05499C173.245 2.05499 184.557 27.3379 184.557 45.4687ZM159.305 31.6987C159.305 31.6987 155.028 20.5257 139.625 20.5257C124.221 20.5257 121.618 31.6987 121.618 31.6987H159.305Z" fill="#FFFFFF"/>
<path d="M85.4422 102.855V186.559H60.7806V176.082C53.1396 182.757 42.6443 188.121 32.157 188.121C12.2014 188.121 0.711548 175.548 0.711548 139.205V102.855H25.365V139.205C25.365 156.406 27.1439 165.726 36.491 165.726C45.8381 165.726 55.2095 158.437 60.7887 150.799V102.847H85.4422V102.855Z" fill="#FFFFFF"/>
<path d="M184.404 160.678C184.404 177.36 168.54 188.129 143.999 188.129C117.446 188.129 95.889 175.564 95.889 175.564L105.406 156.487C105.406 156.487 125.313 166.964 142.511 166.964C151.77 166.964 162.807 165.831 162.807 160.435C162.807 157.094 160.971 154.667 137.919 154.667C122.637 154.667 102.309 152.118 102.309 130.128C102.309 116.965 109.538 101.285 143.999 101.285C164.311 101.285 182.665 110.654 182.665 110.654L174.669 130.12C174.669 130.12 156.055 121.423 142.617 121.423C129.178 121.423 124.003 124.707 124.003 127.766C124.003 130.225 124.003 133.599 148.43 133.599C171.297 133.599 184.396 143.38 184.396 160.67L184.404 160.678Z" fill="#FFFFFF"/>
<path d="M180.684 0H196.233V3.76209H190.606V16.5208H186.312V3.76209H180.684V0Z" fill="#FFFFFF"/>
<path d="M213.577 0H218V16.5208H213.949V8.2766L210.011 16.5208H205.75L201.812 8.2766V16.5208H197.761V0H202.184L207.877 11.9173L213.577 0Z" fill="#FFFFFF"/>
</g>
<path d="M1.47936 237.082V217.535H9.63019C11.0936 217.535 12.3185 217.742 13.3047 218.156C14.2973 218.569 15.0418 219.148 15.5381 219.893C16.0408 220.637 16.2921 221.5 16.2921 222.479C16.2921 223.224 16.1362 223.889 15.8244 224.474C15.5126 225.053 15.0832 225.534 14.5359 225.915C13.9887 226.297 13.3556 226.564 12.6366 226.717V226.908C13.4256 226.946 14.1542 227.159 14.8223 227.547C15.4967 227.936 16.0376 228.476 16.4448 229.17C16.852 229.857 17.0556 230.672 17.0556 231.613C17.0556 232.663 16.7884 233.602 16.2539 234.429C15.7194 235.25 14.9464 235.899 13.9347 236.376C12.923 236.847 11.6949 237.082 10.2506 237.082H1.47936ZM6.20379 233.274H9.12434C10.1488 233.274 10.9028 233.08 11.3863 232.692C11.8763 232.304 12.1212 231.763 12.1212 231.069C12.1212 230.567 12.0035 230.134 11.7681 229.771C11.5327 229.402 11.1986 229.119 10.766 228.922C10.3333 228.718 9.81471 228.616 9.21024 228.616H6.20379V233.274ZM6.20379 225.572H8.81892C9.33431 225.572 9.79244 225.486 10.1933 225.314C10.5942 225.142 10.9059 224.894 11.1286 224.57C11.3577 224.245 11.4722 223.854 11.4722 223.396C11.4722 222.74 11.24 222.225 10.7755 221.85C10.311 221.474 9.68427 221.286 8.89528 221.286H6.20379V225.572ZM22.7883 217.535H28.0663L32.199 225.715H32.3708L36.5035 217.535H41.7815L34.6328 230.554V237.082H29.937V230.554L22.7883 217.535ZM58.3387 237.082V234.391L67.8353 221.372H58.3482V217.535H73.81V220.227L64.3134 233.245H73.8004V237.082H58.3387ZM81.1342 237.082V217.535H94.7634V221.372H85.8586V225.381H94.0667V229.227H85.8586V233.245H94.7634V237.082H81.1342ZM102.157 237.082V217.535H110.231C111.695 217.535 112.958 217.822 114.02 218.394C115.089 218.961 115.913 219.753 116.492 220.771C117.071 221.783 117.361 222.96 117.361 224.302C117.361 225.651 117.065 226.832 116.473 227.843C115.888 228.849 115.051 229.628 113.963 230.182C112.875 230.735 111.583 231.012 110.088 231.012H105.106V227.29H109.21C109.923 227.29 110.518 227.166 110.995 226.918C111.478 226.669 111.844 226.323 112.092 225.877C112.341 225.425 112.465 224.901 112.465 224.302C112.465 223.698 112.341 223.176 112.092 222.737C111.844 222.292 111.478 221.948 110.995 221.706C110.511 221.465 109.916 221.344 109.21 221.344H106.881V237.082H102.157ZM123.485 221.372V217.535H140.006V221.372H134.079V237.082H129.421V221.372H123.485ZM146.748 237.082V217.535H160.377V221.372H151.472V225.381H159.681V229.227H151.472V233.245H160.377V237.082H146.748ZM167.771 237.082V217.535H175.845C177.309 217.535 178.572 217.8 179.634 218.328C180.703 218.849 181.527 219.6 182.106 220.58C182.685 221.554 182.975 222.709 182.975 224.045C182.975 225.4 182.679 226.552 182.087 227.5C181.495 228.441 180.655 229.16 179.567 229.657C178.479 230.147 177.191 230.392 175.702 230.392H170.596V226.669H174.824C175.536 226.669 176.131 226.577 176.609 226.393C177.092 226.202 177.458 225.915 177.706 225.534C177.954 225.145 178.078 224.649 178.078 224.045C178.078 223.44 177.954 222.941 177.706 222.546C177.458 222.145 177.092 221.846 176.609 221.649C176.125 221.445 175.53 221.344 174.824 221.344H172.495V237.082H167.771ZM178.775 228.149L183.643 237.082H178.489L173.717 228.149H178.775Z" fill="#FFFFFF"/>
<defs>
<clipPath id="clip0_1_40">
<rect width="218" height="188.137" fill="white"/>
</clipPath>
</defs>
</svg>
